<?xml version="1.0" standalone="no"?>
<!DOCTYPE svg PUBLIC "-//W3C//DTD SVG 20010904//EN"
 "http://www.w3.org/TR/2001/REC-SVG-20010904/DTD/svg10.dtd">
<svg version="1.0" xmlns="http://www.w3.org/2000/svg"
 width="1080.000000pt" height="1100.000000pt" viewBox="0 0 1080.000000 1100.000000"
 preserveAspectRatio="xMidYMid meet">

<g transform="translate(0.000000,1100.000000) scale(0.100000,-0.100000)"
fill="#000000" stroke="none">
<path d="M5585 10229 c-22 -4 -103 -8 -181 -8 -275 -2 -550 -37 -594 -76 -9
-8 -35 -21 -58 -29 -83 -30 -213 -122 -297 -211 -17 -18 -53 -44 -81 -58 -122
-62 -298 -246 -377 -395 -41 -78 -52 -113 -83 -259 -39 -186 -57 -290 -79
-466 -13 -106 -13 -122 1 -160 30 -81 53 -161 60 -203 6 -43 34 -76 98 -118
22 -14 34 -16 50 -8 22 10 22 8 25 -71 1 -44 2 -83 3 -86 0 -3 0 -22 -1 -41
-1 -27 -4 -31 -11 -19 -5 9 -20 20 -32 23 -13 4 -39 29 -58 57 -75 110 -97
135 -134 152 -21 10 -45 17 -54 15 -20 -4 -28 -28 -9 -28 8 0 25 -8 37 -18 21
-17 22 -22 12 -68 -7 -30 -7 -53 -1 -58 5 -6 9 0 9 16 0 14 9 36 19 49 l19 24
32 -30 c34 -31 110 -140 110 -156 0 -5 -4 -9 -8 -9 -5 0 -17 -7 -28 -15 -18
-15 -17 -16 11 -10 27 5 33 1 57 -36 20 -30 25 -49 21 -70 -3 -18 -1 -29 5
-29 11 0 9 -217 -3 -228 -3 -3 -5 4 -5 16 0 23 -19 41 -21 20 -1 -7 0 -17 1
-23 3 -10 11 -305 10 -357 0 -19 5 -28 15 -28 11 0 15 -11 15 -38 0 -106 43
-244 102 -328 21 -30 38 -57 38 -60 0 -6 103 -160 131 -195 11 -14 23 -46 26
-70 6 -46 38 -115 74 -160 16 -20 19 -31 11 -44 -13 -24 26 -104 50 -105 25 0
33 -20 9 -20 -25 0 -26 -9 -6 -36 10 -13 14 -15 15 -5 0 11 4 10 19 -3 12 -11
27 -15 40 -11 11 3 28 2 38 -4 22 -12 55 -24 68 -25 6 -1 9 -8 8 -16 -2 -9 6
-21 17 -28 16 -10 18 -9 14 3 -4 8 -1 15 5 15 6 0 11 -5 11 -10 0 -6 10 -15
23 -20 l22 -9 -22 0 c-16 -1 -23 -7 -23 -20 0 -11 -6 -22 -12 -24 -7 -3 -2 -6
11 -6 13 -1 29 7 36 16 11 15 13 15 19 -5 5 -14 14 -21 24 -20 9 2 16 -3 15
-9 -2 -7 4 -13 13 -13 8 0 13 4 9 9 -3 5 -1 13 5 16 8 5 7 12 -2 23 -11 13
-11 14 2 10 8 -3 14 -13 14 -22 -2 -16 3 -18 71 -20 47 -2 67 -7 77 -21 4 -5
11 2 17 15 5 14 10 18 10 10 1 -18 117 -52 147 -44 11 3 36 -6 57 -20 21 -14
44 -26 51 -26 8 0 26 -6 41 -14 16 -9 44 -13 65 -10 28 3 39 0 44 -11 4 -11
13 -14 26 -10 12 4 20 2 20 -5 0 -6 16 -10 38 -9 53 2 136 -12 145 -25 5 -8 9
-7 15 2 10 15 50 24 73 17 9 -3 19 -15 22 -27 5 -16 9 -19 19 -11 17 14 63 24
71 16 8 -7 -39 -33 -59 -33 -25 0 -144 -52 -139 -60 6 -10 47 1 90 23 32 17
225 73 237 69 4 -1 24 9 44 23 20 14 41 25 46 25 9 0 73 30 116 54 13 8 30 23
38 35 8 11 22 21 30 21 8 0 19 10 24 23 5 12 9 16 9 9 1 -7 5 -11 10 -8 5 3
14 -1 21 -9 7 -8 9 -15 5 -15 -4 0 -2 -7 5 -15 10 -13 9 -15 -9 -15 -11 0 -21
-5 -21 -11 0 -5 5 -7 10 -4 6 3 10 2 10 -4 0 -5 -5 -11 -11 -13 -5 -2 -11 -10
-13 -18 -2 -8 -8 -28 -15 -44 -12 -31 -6 -50 9 -26 6 8 10 12 10 8 0 -5 8 0
18 10 10 10 27 25 38 33 11 8 32 38 47 68 27 53 27 54 9 75 -22 24 -35 56 -24
56 5 0 17 -7 28 -15 22 -17 34 -19 34 -6 0 17 -63 56 -68 43 -2 -7 -12 -12
-23 -12 -18 0 -18 2 -5 33 7 17 19 31 26 29 18 -4 60 49 60 76 0 14 -9 27 -25
34 -42 19 -32 50 36 112 34 30 82 79 106 108 25 29 72 85 104 123 57 66 109
165 143 270 7 22 20 56 29 75 8 19 20 64 27 100 12 73 12 290 -2 290 -4 0 -8
-19 -8 -42 0 -61 -10 -90 -27 -84 -9 4 -17 -1 -20 -13 -7 -27 -43 -35 -43 -9
0 11 -5 18 -12 15 -7 -2 -13 -14 -12 -26 1 -23 -42 -73 -71 -84 -10 -4 -15
-17 -13 -35 2 -30 -25 -82 -42 -82 -6 0 -10 -6 -10 -13 0 -8 -9 -22 -21 -33
-13 -12 -18 -25 -15 -40 5 -17 1 -24 -16 -30 -14 -4 -24 -2 -26 6 -2 6 -12 -1
-22 -17 -14 -24 -15 -29 -2 -34 12 -4 12 -7 -2 -21 -9 -9 -16 -30 -16 -47 0
-24 -3 -29 -16 -24 -13 5 -15 2 -10 -15 4 -11 2 -23 -4 -27 -5 -3 -10 0 -10 8
0 7 -16 31 -35 53 -19 21 -33 45 -30 52 3 8 5 18 5 23 0 6 4 8 9 4 5 -3 12 -1
15 4 4 5 2 12 -4 16 -12 8 -13 45 -1 45 5 0 12 -6 15 -12 3 -7 5 3 4 22 0 19
0 46 1 60 l2 25 16 -22 c18 -26 33 -30 33 -8 0 8 -7 15 -16 15 -12 0 -15 6
-11 21 3 12 -3 44 -13 71 -10 27 -16 57 -13 66 6 15 3 14 -15 -2 -21 -18 -21
-18 -28 7 -5 22 -10 25 -34 21 -22 -5 -29 -2 -35 15 -3 12 -11 21 -17 21 -6 0
-18 8 -27 18 -9 9 -20 17 -26 17 -36 1 -76 18 -71 31 3 7 0 13 -5 11 -25 -5
-17 53 12 90 34 42 24 56 -17 24 -30 -24 -55 -26 -117 -9 -41 11 -49 9 -112
-20 -103 -49 -162 -40 -245 33 -37 33 -65 38 -134 25 -54 -11 -66 -11 -96 5
-19 9 -45 27 -57 38 -13 11 -25 18 -28 15 -13 -13 9 -35 60 -59 48 -23 65 -26
140 -23 81 3 86 2 117 -25 42 -36 105 -68 143 -72 29 -4 54 -24 54 -44 0 -5
-6 -2 -14 9 -17 22 -48 14 -43 -11 1 -10 -1 -23 -5 -29 -8 -13 33 -64 51 -64
7 0 12 -5 12 -11 0 -6 7 -8 15 -5 10 3 18 -1 22 -12 9 -23 25 -33 46 -26 10 3
20 -1 24 -12 6 -15 7 -15 20 2 14 18 15 18 33 -4 11 -13 25 -20 31 -16 11 6
29 -12 29 -30 0 -5 -15 -6 -32 -4 -18 3 -42 2 -53 -3 -17 -6 -17 -8 -2 -8 19
-1 23 -36 7 -61 -7 -12 -12 -12 -29 4 -19 17 -20 17 -41 -4 -14 -14 -30 -20
-45 -18 -12 3 -30 -1 -40 -8 -15 -12 -11 -13 33 -7 69 8 119 -3 125 -27 4 -16
14 -20 47 -20 36 0 50 6 86 40 50 46 61 49 66 18 2 -13 9 -22 15 -21 7 2 15
-7 18 -18 4 -11 18 -24 31 -29 17 -7 24 -17 24 -35 0 -15 15 -41 36 -65 20
-22 32 -40 26 -40 -6 0 -14 5 -17 10 -13 21 -25 9 -19 -17 5 -22 4 -26 -6 -16
-15 14 -40 -5 -33 -24 6 -16 -9 -17 -25 -1 -9 9 -12 9 -12 -3 0 -8 5 -20 12
-27 6 -6 9 -15 5 -19 -4 -3 -16 3 -27 15 -27 29 -47 28 -26 0 24 -34 29 -48
21 -56 -4 -4 -10 -1 -12 6 -5 14 -53 17 -53 2 0 -5 10 -10 23 -11 19 0 18 -2
-8 -12 -16 -7 -30 -18 -31 -24 -1 -7 -2 -29 -2 -48 -2 -26 -6 -33 -17 -29 -13
5 -14 2 -5 -21 17 -44 13 -68 -9 -62 -21 5 -34 -14 -25 -37 6 -15 -5 -25 -36
-31 -14 -3 -25 5 -37 28 -16 32 -51 64 -66 59 -4 -1 -11 9 -16 22 -5 13 -18
25 -28 28 -21 6 -55 -23 -35 -30 22 -7 12 -23 -10 -17 -18 6 -20 5 -11 -5 6
-7 23 -14 38 -15 27 -3 55 -21 55 -36 0 -17 -42 -21 -59 -5 -23 21 -28 20 -34
-4 -3 -11 -11 -19 -19 -18 -9 2 -12 -7 -11 -32 l3 -35 -26 30 c-25 29 -25 29
-18 5 4 -14 9 -32 12 -40 5 -13 3 -13 -11 -1 -15 12 -17 11 -17 -12 0 -19 -4
-25 -15 -21 -8 4 -15 15 -15 26 0 26 -20 12 -21 -15 0 -12 -3 -16 -6 -9 -2 6
-9 10 -14 6 -5 -3 -9 0 -9 5 0 6 -6 11 -14 11 -17 0 -33 79 -19 89 15 9 23 63
9 58 -6 -2 -12 -13 -14 -25 -4 -26 -17 -29 -26 -6 -10 27 -7 44 9 44 8 0 24 9
36 21 l21 21 -23 -7 c-21 -7 -22 -5 -16 29 3 20 2 36 -4 36 -8 0 -10 -6 -13
-38 -1 -7 -7 -17 -15 -22 -9 -5 -15 -27 -16 -57 -1 -48 -20 -93 -40 -93 -6 0
-16 -12 -21 -27 l-10 -28 -29 45 c-16 25 -30 47 -32 49 -9 13 -12 -10 -4 -32
16 -43 -7 -43 -25 -1 -11 26 -18 33 -24 24 -4 -7 -13 -9 -19 -6 -7 5 -11 -2
-11 -19 0 -20 -4 -26 -15 -21 -9 3 -15 0 -15 -8 0 -9 -7 -12 -20 -9 -16 4 -18
8 -9 19 8 10 4 24 -17 59 -27 42 -44 56 -44 36 0 -5 -9 -11 -19 -14 -23 -6
-18 18 5 27 22 9 16 25 -7 19 -19 -5 -21 -3 -17 20 4 20 2 24 -11 19 -9 -3
-24 -13 -34 -24 -23 -24 -25 -23 -19 7 5 29 -5 33 -23 8 -11 -15 -13 -13 -10
17 2 19 5 37 6 40 1 3 1 8 0 13 -1 4 11 12 26 18 25 10 26 12 9 18 -19 7 -19
8 1 28 l20 20 -51 -2 c-28 -2 -54 -3 -58 -4 -4 -1 -10 -10 -13 -22 -4 -11 -9
-18 -12 -15 -3 2 2 19 11 37 13 25 13 35 4 46 -9 12 -9 14 3 13 7 -1 20 -2 27
-1 20 2 -3 36 -25 36 -13 0 -17 7 -16 25 3 24 2 24 -25 -9 -26 -30 -30 -32
-36 -15 -5 12 -1 23 11 32 16 12 15 13 -9 8 -32 -5 -35 0 -11 26 14 16 14 18
1 18 -9 0 -21 -7 -28 -15 -26 -31 -21 -5 5 29 27 36 27 36 5 36 -18 0 -20 3
-11 14 6 7 13 28 15 45 2 18 13 42 25 55 11 12 21 32 21 43 0 24 24 48 40 38
5 -3 10 -2 10 3 0 10 37 8 90 -3 37 -9 90 -9 98 -1 2 3 -3 12 -12 21 -29 30
-16 42 39 36 11 -1 35 1 53 4 26 5 31 9 23 19 -16 19 3 68 24 60 12 -5 15 2
15 35 0 36 27 110 40 111 8 0 6 -68 -3 -76 -11 -11 -9 -62 3 -69 6 -3 10 -1
10 6 0 7 10 -1 23 -18 16 -22 27 -28 41 -23 14 4 16 9 8 14 -20 12 -13 28 9
21 15 -5 19 -4 15 4 -4 6 -2 11 3 11 6 0 11 -7 11 -15 0 -8 6 -15 14 -15 7 0
19 7 26 15 7 8 23 15 36 15 13 0 24 5 24 10 0 6 11 15 24 22 29 12 38 31 29
55 -6 14 -9 12 -20 -12 l-14 -30 6 27 c4 23 2 27 -12 25 -10 -1 -24 -6 -30
-10 -8 -5 -13 -3 -13 7 0 8 5 18 10 21 16 10 12 25 -5 19 -10 -4 -15 0 -15 13
0 26 -7 32 -30 26 -11 -3 -16 -11 -13 -19 3 -8 0 -14 -7 -14 -6 0 -8 -6 -5
-12 4 -7 0 -5 -8 5 -20 24 -51 23 -44 -3 3 -11 1 -20 -3 -20 -5 0 -11 -8 -13
-17 -4 -15 -5 -14 -6 3 0 11 -12 34 -26 49 -21 25 -25 27 -31 12 -9 -23 -24
-21 -24 3 0 27 -5 25 -38 -10 -16 -16 -34 -30 -40 -30 -5 0 -13 -7 -16 -16 -4
-10 -13 -13 -26 -9 -14 5 -18 3 -14 -8 2 -7 -2 -20 -11 -27 -19 -16 -32 -6
-16 13 9 11 8 17 -2 25 -10 9 -22 6 -47 -13 -19 -14 -40 -25 -47 -25 -7 0 -10
-7 -7 -15 4 -8 1 -15 -5 -15 -6 0 -11 12 -11 28 -1 25 -2 26 -15 8 -7 -10 -18
-15 -24 -12 -5 4 -12 2 -16 -4 -10 -16 -23 -12 -21 6 0 9 -5 19 -11 21 -8 3
-13 -5 -14 -19 0 -12 -3 -17 -6 -10 -9 23 -33 13 -34 -15 -1 -25 -2 -26 -7 -6
-7 21 -8 22 -39 6 -18 -8 -33 -22 -33 -29 0 -8 -4 -14 -10 -14 -15 0 -12 31 4
44 8 6 18 25 22 41 l6 30 -33 -35 c-34 -34 -34 -36 -33 -123 0 -63 4 -91 14
-97 19 -12 -6 -96 -34 -115 -11 -8 -16 -15 -12 -15 5 0 18 7 28 17 17 15 18
15 18 -14 0 -18 -6 -33 -15 -37 -8 -3 -15 -11 -15 -18 0 -7 -11 -23 -24 -35
-13 -13 -26 -37 -30 -55 -5 -23 -9 -29 -17 -21 -7 7 -12 22 -13 35 -1 16 -7
23 -22 22 -15 0 -20 5 -18 20 1 12 3 21 4 21 1 0 3 16 4 35 2 19 6 46 10 60 5
17 4 21 -2 11 -5 -7 -14 -11 -20 -7 -15 9 -42 -39 -42 -74 0 -45 -24 -33 -31
16 -5 38 -5 38 -13 11 -5 -17 -4 -32 3 -41 9 -11 8 -15 -5 -20 -23 -9 -22 -9
-33 29 -6 22 -6 47 0 68 14 49 12 61 -7 42 -9 -9 -18 -14 -20 -12 -7 7 13 51
35 76 33 37 25 63 -21 75 -16 3 -28 11 -28 17 0 6 6 9 14 6 20 -8 27 3 13 18
-8 9 -16 9 -29 2 -11 -8 -20 -8 -30 1 -9 7 -19 8 -28 1 -13 -8 -13 -11 1 -22
11 -8 14 -19 9 -32 -11 -29 14 -62 33 -47 21 18 29 1 12 -25 -9 -13 -13 -23
-10 -23 3 0 0 -6 -7 -14 -18 -19 -29 -10 -22 18 4 19 2 22 -17 21 -13 -1 -25
-7 -27 -13 -5 -17 -22 -4 -22 17 0 12 -7 18 -17 17 -10 0 -17 5 -15 12 1 6 -4
11 -10 10 -7 -2 -14 7 -16 20 -3 19 -6 21 -18 11 -22 -18 -18 7 5 30 17 17 19
29 14 78 -7 69 -10 74 -29 48 -13 -17 -16 -18 -24 -5 -6 8 -8 21 -5 28 3 8 2
19 -2 25 -9 15 -4 69 8 81 5 6 9 15 9 20 0 6 -4 5 -9 -3 -7 -11 -12 -3 -22 28
-10 33 -16 40 -31 35 -10 -3 -18 -1 -18 5 0 6 5 11 10 11 6 0 8 13 5 29 -4 22
-1 31 12 34 10 3 0 5 -22 6 l-40 2 27 23 c21 19 24 26 13 30 -19 7 -19 35 0
42 18 7 20 35 3 52 -9 9 -9 17 -1 34 7 13 14 36 16 52 5 32 -11 89 -23 81 -4
-2 -6 9 -4 26 l4 30 -25 -18 c-15 -11 -24 -28 -25 -45 0 -15 -5 -30 -10 -33
-8 -5 -8 -11 0 -20 9 -10 7 -20 -5 -39 -9 -14 -14 -29 -11 -34 7 -11 -18 -35
-27 -26 -3 3 -1 17 4 31 5 14 7 41 3 61 -3 21 -5 48 -5 62 0 14 1 36 1 49 0
12 3 28 7 34 4 7 8 18 8 27 1 8 5 26 9 39 6 16 5 21 -3 17 -6 -4 -11 -1 -11 8
0 8 5 18 10 21 6 4 9 14 6 23 -8 27 19 113 42 137 24 25 26 24 237 -25 103
-24 135 -38 135 -57 0 -8 12 -13 30 -13 32 0 41 -16 13 -23 -14 -4 -12 -5 5
-6 20 -1 22 -6 22 -50 0 -40 3 -50 20 -54 20 -5 20 -2 14 91 -3 54 -7 102 -9
109 -2 6 -23 13 -47 15 -42 3 -43 4 -46 39 -3 34 -6 37 -40 41 -20 3 -66 6
-102 7 -36 1 -74 4 -85 6 -11 2 -40 4 -65 4 -43 1 -46 3 -56 37 -8 24 -8 47
-2 72 11 40 11 45 2 114 -5 40 -3 49 12 55 19 7 64 51 64 63 0 3 16 14 35 23
19 9 35 21 35 26 0 21 132 61 200 61 28 0 72 41 52 48 -12 4 -6 76 6 80 5 1
17 8 26 15 14 10 12 12 -14 13 -17 1 -33 3 -35 6 -9 9 20 58 37 63 9 3 18 18
20 32 4 37 46 64 109 70 30 3 61 11 69 18 8 7 22 15 30 18 12 4 12 6 1 6 -30
2 94 118 156 146 38 18 54 32 59 50 4 15 16 28 29 31 13 3 25 14 28 23 3 14
20 19 78 24 41 4 84 10 97 13 16 5 22 2 22 -10 0 -26 24 -18 42 14 17 30 40
41 35 18 -3 -17 80 -22 141 -9 32 6 51 6 59 -1 9 -7 17 -7 27 1 18 15 136 4
151 -13 20 -24 61 -44 104 -50 24 -4 49 -10 55 -14 6 -3 25 -7 41 -8 29 -1 56
-7 95 -19 10 -3 21 -1 25 5 3 5 20 10 37 10 23 0 39 -9 63 -36 20 -23 35 -32
39 -25 4 6 21 11 37 11 18 0 28 4 24 10 -3 6 -2 10 4 10 5 0 13 -9 16 -21 7
-21 75 -58 108 -59 14 0 16 5 11 25 -9 36 6 31 44 -15 22 -27 33 -52 36 -82 4
-43 17 -84 38 -126 9 -18 8 -24 -6 -35 -14 -10 -15 -18 -7 -40 6 -14 12 -52
15 -83 2 -33 10 -60 17 -65 11 -7 11 -12 2 -27 -7 -12 -8 -24 -2 -33 13 -21
11 -41 -3 -33 -7 4 -3 -4 10 -18 12 -13 22 -32 22 -41 0 -10 5 -14 15 -11 8 4
15 1 15 -6 0 -7 9 -25 20 -40 13 -19 17 -31 10 -35 -6 -4 -9 -14 -6 -23 3 -10
6 -34 8 -54 1 -21 7 -37 13 -36 21 4 73 -32 78 -54 3 -13 6 -63 7 -113 0 -49
5 -94 9 -98 11 -11 29 43 35 108 3 28 11 100 17 160 6 63 26 161 45 230 44
152 51 223 31 295 -47 164 -85 255 -128 304 -52 59 -76 112 -84 186 -3 36 -11
81 -16 100 -11 44 -94 160 -115 160 -8 0 -38 17 -67 39 -29 21 -82 53 -118 70
-64 30 -129 88 -129 115 0 30 -50 60 -116 68 -81 9 -178 54 -194 88 -16 36
-68 65 -157 89 -43 12 -111 30 -152 41 -80 21 -94 22 -156 9z m-1332 -2590 c5
-20 5 -20 -14 -3 -23 20 -28 54 -5 35 8 -6 16 -21 19 -32z m1697 -349 c0 -5
-2 -10 -4 -10 -3 0 -8 5 -11 10 -3 6 -1 10 4 10 6 0 11 -4 11 -10z m-1590 -50
c0 -5 -4 -10 -10 -10 -5 0 -10 5 -10 10 0 6 5 10 10 10 6 0 10 -4 10 -10z
m1287 -12 c-3 -8 -6 -5 -6 6 -1 11 2 17 5 13 3 -3 4 -12 1 -19z m263 -20 c0
-6 -6 -5 -15 2 -8 7 -15 14 -15 16 0 2 7 1 15 -2 8 -4 15 -11 15 -16z m-1478
-54 c-6 -12 -9 -7 -9 16 0 23 3 28 9 16 5 -9 5 -23 0 -32z m901 -34 c13 -1
-22 -30 -35 -30 -12 0 -10 39 4 63 13 22 13 22 16 -5 2 -16 9 -28 15 -28z
m1457 -20 c0 -11 -7 -20 -15 -20 -18 0 -19 12 -3 28 16 16 18 15 18 -8z m-490
-21 c0 -6 -4 -7 -10 -4 -5 3 -10 11 -10 16 0 6 5 7 10 4 6 -3 10 -11 10 -16z
m-1030 -33 c0 -11 -19 -15 -25 -6 -3 5 1 10 9 10 9 0 16 -2 16 -4z m-820 -56
c0 -11 11 -27 25 -36 28 -18 32 -48 11 -70 -19 -19 -32 -18 -16 1 10 12 10 18
0 30 -7 8 -18 15 -25 15 -12 0 -26 65 -16 75 10 11 21 4 21 -15z m50 -10 c0
-5 -4 -10 -10 -10 -5 0 -10 5 -10 10 0 6 5 10 10 10 6 0 10 -4 10 -10z m76
-46 c-4 -10 1 -22 11 -30 17 -12 17 -14 -2 -28 -25 -19 -39 -20 -32 -2 3 8 2
16 -3 18 -14 5 1 58 17 58 10 0 13 -6 9 -16z m104 -177 c0 -31 0 -31 -15 -10
-8 12 -12 28 -9 37 9 25 24 8 24 -27z m293 -9 c-11 -13 -23 -30 -26 -38 -5
-13 -6 -13 -6 0 -1 20 27 60 41 60 6 0 2 -10 -9 -22z m1437 -69 c0 -5 -4 -9
-10 -9 -5 0 -10 7 -10 16 0 8 5 12 10 9 6 -3 10 -10 10 -16z m-1491 -33 c10
-12 8 -13 -8 -9 -12 3 -21 9 -21 14 0 14 16 11 29 -5z m-29 -46 c0 -5 -4 -10
-10 -10 -5 0 -10 5 -10 10 0 6 5 10 10 10 6 0 10 -4 10 -10z m315 -30 c-3 -5
-11 -10 -16 -10 -6 0 -7 5 -4 10 3 6 11 10 16 10 6 0 7 -4 4 -10z m1035 -80
c13 -8 13 -10 -2 -10 -9 0 -20 5 -23 10 -8 13 5 13 25 0z m-905 -151 c-4 -5
-13 -9 -21 -9 -12 0 -12 2 -2 14 14 15 32 11 23 -5z m705 -43 c0 -18 -3 -16
-15 8 -19 36 -19 57 0 32 8 -11 15 -29 15 -40z m-96 26 c-5 -59 -5 -58 -14
-37 -13 30 -12 57 3 53 6 -3 12 -10 11 -16z m51 -31 c-10 -16 -25 -3 -25 22 0
20 1 20 16 5 9 -9 13 -21 9 -27z m-1434 -11 c5 0 9 -7 9 -15 0 -18 -14 -19
-41 -4 -22 11 -15 34 8 25 8 -3 19 -6 24 -6z m119 -30 c0 -5 -8 -10 -17 -10
-15 0 -16 2 -3 10 19 12 20 12 20 0z m-10 -78 c0 -4 -10 -9 -22 -9 -18 -2 -20
0 -8 7 18 12 30 13 30 2z m1740 -117 c0 -8 -4 -15 -10 -15 -5 0 -7 7 -4 15 4
8 8 15 10 15 2 0 4 -7 4 -15z m-1560 -20 c0 -8 -4 -15 -9 -15 -5 0 -14 7 -21
15 -10 13 -9 15 9 15 12 0 21 -6 21 -15z m80 0 c0 -8 -7 -15 -15 -15 -8 0 -15
7 -15 15 0 8 7 15 15 15 8 0 15 -7 15 -15z m79 -11 c10 -9 -6 -12 -31 -7 -15
3 -25 9 -22 15 5 8 41 2 53 -8z m916 -194 c3 -5 1 -10 -4 -10 -6 0 -11 5 -11
10 0 6 2 10 4 10 3 0 8 -4 11 -10z"/>
<path d="M5040 8512 c0 -5 -18 -7 -39 -5 -31 2 -46 -3 -69 -22 -33 -28 -51
-33 -32 -10 18 22 6 18 -36 -10 -20 -14 -45 -25 -56 -25 -10 0 -32 -7 -49 -15
-16 -9 -34 -13 -39 -10 -5 3 -14 -4 -20 -15 -6 -12 -23 -25 -37 -31 -20 -7
-23 -13 -15 -21 22 -22 13 -38 -20 -39 l-33 0 41 -13 c22 -7 64 -16 93 -19
l52 -6 20 47 c42 97 69 110 249 120 184 11 448 -17 524 -54 38 -18 50 -18 42
2 -3 8 -2 12 4 9 16 -10 11 12 -10 47 -13 22 -20 27 -20 16 0 -19 -25 -25 -35
-8 -3 5 -15 15 -27 21 -16 9 -19 8 -12 -3 6 -11 5 -11 -9 1 -9 7 -28 11 -42 8
-14 -2 -23 -2 -20 1 2 3 -7 11 -21 18 -18 10 -30 10 -42 3 -12 -8 -26 -7 -47
2 -32 13 -87 12 -95 -1 -3 -4 -25 -10 -50 -13 -25 -4 -58 -9 -75 -13 -29 -6
-29 -6 -10 10 19 16 19 17 -12 11 -27 -6 -32 -4 -27 9 4 11 1 16 -10 16 -9 0
-16 -4 -16 -8z"/>
<path d="M6460 8420 c-8 -5 -27 -6 -42 -3 -15 3 -34 1 -40 -4 -15 -11 -23 -10
-57 1 -18 6 -26 4 -33 -8 -12 -21 -28 -20 -28 2 -1 13 -6 10 -25 -13 -16 -19
-28 -26 -33 -19 -4 6 -19 14 -34 18 -21 5 -26 3 -22 -8 4 -11 -6 -16 -40 -21
-51 -8 -53 -11 -29 -37 9 -11 11 -18 5 -18 -7 0 -12 -4 -12 -8 0 -5 25 4 56
20 53 26 65 28 176 28 77 0 125 4 138 13 16 9 22 9 28 0 4 -6 62 -21 130 -32
67 -12 143 -28 168 -37 25 -8 52 -13 60 -10 22 9 16 47 -12 72 -32 30 -36 30
-28 -1 8 -34 -1 -31 -40 11 -32 35 -85 51 -112 32 -5 -4 -30 -1 -55 6 -70 21
-104 25 -119 16z"/>
<path d="M5007 8400 c-50 -9 -60 -22 -15 -18 20 1 43 -3 51 -10 11 -10 20 -9
43 3 35 18 71 19 77 3 3 -9 10 -7 21 7 17 20 17 20 11 -2 -5 -18 -2 -23 14
-23 11 0 23 5 27 11 3 6 14 9 24 6 11 -3 21 1 24 8 3 8 -7 15 -27 19 -41 7
-200 5 -250 -4z"/>
<path d="M5655 8391 c-3 -5 -1 -12 5 -16 5 -3 10 1 10 9 0 18 -6 21 -15 7z"/>
<path d="M4905 8360 c-3 -5 -1 -10 4 -10 6 0 11 5 11 10 0 6 -2 10 -4 10 -3 0
-8 -4 -11 -10z"/>
<path d="M5643 8343 c9 -9 20 -13 24 -9 4 4 1 11 -7 16 -25 16 -35 11 -17 -7z"/>
<path d="M6450 8299 c0 -23 48 -47 104 -51 20 -1 36 -6 36 -11 0 -4 9 -6 19
-2 22 7 40 -14 21 -25 -10 -6 -10 -8 0 -12 9 -3 10 -14 5 -37 -7 -32 -8 -33
-53 -28 -26 2 -73 11 -104 19 -32 9 -58 12 -58 9 0 -4 19 -17 43 -29 l42 -22
-72 0 c-48 0 -73 -4 -76 -12 -4 -10 -6 -10 -6 0 -1 6 -8 12 -17 12 -12 0 -14
-3 -6 -13 7 -8 9 -29 5 -49 -4 -31 -1 -41 20 -60 14 -13 27 -35 29 -48 2 -19
9 -25 28 -26 14 0 31 -3 37 -7 6 -4 19 -4 29 0 12 4 15 3 10 -5 -7 -11 14 -18
39 -12 6 1 19 3 30 4 12 1 26 6 33 10 7 4 21 4 32 1 11 -4 42 1 68 9 27 9 59
15 72 14 33 -4 40 29 8 41 -15 7 -17 10 -7 10 9 1 20 9 23 19 16 42 33 63 54
69 27 7 29 23 2 23 -24 0 -26 16 -5 36 23 23 18 50 -15 88 -36 40 -108 67
-244 91 -117 20 -126 19 -126 -6z"/>
<path d="M4835 8280 c-3 -5 -1 -10 4 -10 6 0 11 5 11 10 0 6 -2 10 -4 10 -3 0
-8 -4 -11 -10z"/>
<path d="M5327 8231 c3 -11 2 -21 -1 -21 -57 0 -307 -35 -337 -47 -31 -12 -43
-13 -52 -4 -9 9 -8 14 3 21 24 15 -1 28 -36 19 -19 -5 -34 -17 -37 -29 -3 -14
-14 -20 -31 -20 -14 0 -26 -4 -26 -10 0 -5 5 -10 11 -10 8 0 7 -5 -1 -15 -18
-22 -7 -28 23 -14 21 10 30 9 43 -2 14 -11 19 -10 34 9 21 25 55 31 46 7 -8
-22 21 -31 55 -18 24 9 31 8 39 -5 7 -12 9 -13 10 -3 0 8 7 11 20 8 22 -6 28
8 8 17 -10 5 -10 7 0 12 6 3 12 11 12 17 0 8 -4 7 -12 -1 -16 -16 -28 -15 -28
2 0 23 20 29 38 13 9 -8 26 -17 37 -19 29 -5 31 -36 3 -48 -18 -8 -13 -9 25
-5 27 3 47 1 47 -5 0 -6 18 -10 40 -10 22 0 39 -3 38 -7 -1 -5 1 -18 6 -30 8
-24 40 -31 51 -13 4 6 10 8 15 5 5 -3 12 0 16 6 5 8 3 10 -7 4 -11 -6 -10 -4
1 8 10 10 37 17 77 19 l62 3 -25 26 c-17 18 -22 29 -15 34 15 9 71 -4 71 -16
0 -14 17 -11 23 5 3 7 -5 24 -17 37 -12 14 -21 30 -19 36 2 6 -6 14 -19 18
-13 4 -39 14 -58 23 -19 8 -58 18 -87 20 -49 4 -51 3 -46 -17z m-87 -65 c0
-11 -19 -15 -25 -6 -3 5 1 10 9 10 9 0 16 -2 16 -4z m-355 -26 c-3 -5 -14 -10
-23 -10 -15 0 -15 2 -2 10 20 13 33 13 25 0z m505 -35 c11 -13 8 -15 -14 -15
-16 0 -26 5 -26 15 0 8 6 15 14 15 7 0 19 -7 26 -15z m80 -14 c0 -5 -11 -11
-25 -13 -17 -4 -25 -1 -25 8 0 8 11 14 25 14 14 0 25 -4 25 -9z"/>
<path d="M6950 8099 c0 -5 5 -7 10 -4 6 3 10 8 10 11 0 2 -4 4 -10 4 -5 0 -10
-5 -10 -11z"/>
<path d="M5958 8065 c-7 -32 5 -69 14 -44 2 8 2 28 -2 44 l-6 30 -6 -30z"/>
<path d="M5650 8045 c0 -8 2 -15 4 -15 2 0 6 7 10 15 3 8 1 15 -4 15 -6 0 -10
-7 -10 -15z"/>
<path d="M5727 8047 c-4 -10 -7 -26 -7 -35 1 -15 2 -15 11 1 6 10 9 25 7 35
-3 16 -4 15 -11 -1z"/>
<path d="M6076 8025 c-11 -8 -14 -15 -8 -15 7 0 13 -12 13 -27 2 -27 2 -27 6
-3 3 14 9 29 14 35 24 24 4 32 -25 10z"/>
<path d="M6140 8019 c0 -5 5 -7 10 -4 6 3 10 8 10 11 0 2 -4 4 -10 4 -5 0 -10
-5 -10 -11z"/>
<path d="M5611 7994 c0 -11 3 -14 6 -6 3 7 2 16 -1 19 -3 4 -6 -2 -5 -13z"/>
<path d="M6030 7961 c0 -17 18 -21 24 -6 3 9 0 15 -9 15 -8 0 -15 -4 -15 -9z"/>
<path d="M5680 7945 c-7 -8 -8 -15 -2 -15 5 0 15 7 22 15 7 8 8 15 2 15 -5 0
-15 -7 -22 -15z"/>
<path d="M6881 7944 c0 -11 3 -14 6 -6 3 7 2 16 -1 19 -3 4 -6 -2 -5 -13z"/>
<path d="M6550 7858 l-21 -23 28 -3 c15 -2 29 1 31 7 2 6 13 11 24 11 29 0 17
24 -14 28 -17 2 -34 -5 -48 -20z"/>
<path d="M6453 7823 c9 -2 23 -2 30 0 6 3 -1 5 -18 5 -16 0 -22 -2 -12 -5z"/>
<path d="M5315 7620 c-49 -7 -50 -7 -10 -9 51 -2 69 -13 62 -40 -3 -12 -2 -23
3 -26 4 -3 11 11 14 31 5 23 15 38 29 44 19 7 17 9 -13 8 -19 -1 -57 -4 -85
-8z"/>
<path d="M6130 7626 c0 -3 20 -18 46 -35 31 -22 56 -31 82 -30 l37 0 -51 18
c-27 10 -64 26 -82 35 -18 9 -32 14 -32 12z"/>
<path d="M3900 7575 c7 -9 15 -13 17 -11 7 7 -7 26 -19 26 -6 0 -6 -6 2 -15z"/>
<path d="M6328 7553 c7 -3 16 -2 19 1 4 3 -2 6 -13 5 -11 0 -14 -3 -6 -6z"/>
<path d="M5816 7174 c-9 -23 -8 -24 14 -24 11 0 20 2 20 4 0 12 -13 36 -20 36
-4 0 -11 -7 -14 -16z"/>
<path d="M4470 7118 c-12 -22 -12 -22 6 -6 10 10 15 20 12 24 -4 3 -12 -5 -18
-18z"/>
<path d="M5336 7021 c-3 -4 6 -13 21 -20 22 -10 25 -10 19 4 -3 9 -6 19 -6 21
0 8 -29 4 -34 -5z"/>
<path d="M4680 6991 c0 -5 5 -13 10 -16 6 -3 10 -2 10 4 0 5 -4 13 -10 16 -5
3 -10 2 -10 -4z"/>
<path d="M6600 6960 c0 -11 4 -20 9 -20 5 0 7 9 4 20 -3 11 -7 20 -9 20 -2 0
-4 -9 -4 -20z"/>
<path d="M4700 6948 c0 -9 11 -23 25 -32 14 -9 25 -13 25 -8 0 5 -11 19 -25
32 -19 18 -25 20 -25 8z"/>
<path d="M6460 6850 c0 -5 5 -10 10 -10 6 0 10 5 10 10 0 6 -4 10 -10 10 -5 0
-10 -4 -10 -10z"/>
<path d="M6230 6764 c0 -8 5 -12 10 -9 6 4 8 11 5 16 -9 14 -15 11 -15 -7z"/>
<path d="M6135 6760 c3 -5 8 -10 11 -10 2 0 4 5 4 10 0 6 -5 10 -11 10 -5 0
-7 -4 -4 -10z"/>
<path d="M6071 6718 c-1 -13 -9 -15 -41 -12 -31 3 -40 0 -40 -12 0 -8 -7 -17
-15 -20 -11 -5 -12 -11 -4 -25 7 -15 6 -19 -6 -19 -8 0 -15 8 -15 18 0 14 -2
14 -9 3 -8 -13 -12 -13 -27 0 -16 13 -17 12 -10 -5 7 -19 6 -19 -13 -2 -17 15
-23 16 -36 6 -11 -9 -19 -10 -28 -1 -12 9 -103 10 -111 0 -2 -2 -8 -13 -14
-24 -11 -19 -12 -18 -9 5 2 20 -2 24 -18 22 -31 -6 -47 -24 -41 -47 4 -17 -2
-25 -27 -38 l-32 -17 43 4 c34 4 42 1 38 -9 -3 -9 0 -12 10 -8 7 3 14 8 14 12
0 4 7 16 16 27 15 19 15 19 11 -1 -3 -11 -8 -29 -13 -39 -6 -17 -4 -17 24 4
17 13 29 27 26 32 -3 4 0 8 5 8 6 0 11 -14 11 -31 0 -26 2 -29 14 -19 8 6 12
18 9 26 -3 9 12 -1 33 -20 36 -33 39 -34 46 -16 4 11 5 27 2 35 -9 23 11 18
44 -10 37 -31 42 -31 34 -2 -5 20 -4 20 11 8 15 -12 16 -11 11 17 l-6 31 37
-19 c20 -10 44 -16 53 -13 10 4 12 8 4 11 -7 2 -12 8 -12 13 0 4 8 5 17 2 13
-5 15 -3 8 13 -14 34 -19 87 -6 80 6 -4 11 -15 11 -24 0 -12 3 -13 12 -4 8 8
8 20 1 44 -6 18 -11 26 -12 16z"/>
<path d="M5481 6693 c-12 -14 -19 -28 -16 -31 6 -6 55 38 55 50 0 16 -19 7
-39 -19z"/>
<path d="M5587 6693 c-13 -12 -7 -25 8 -19 24 9 17 -7 -15 -34 -16 -14 -30
-28 -30 -32 0 -16 19 -7 49 21 28 27 30 32 19 50 -14 22 -20 25 -31 14z"/>
<path d="M5530 6665 c-7 -9 -11 -18 -8 -20 9 -10 38 7 38 21 0 18 -14 18 -30
-1z"/>
<path d="M5728 6493 c7 -3 16 -2 19 1 4 3 -2 6 -13 5 -11 0 -14 -3 -6 -6z"/>
<path d="M5430 6380 c0 -5 5 -10 11 -10 5 0 7 5 4 10 -3 6 -8 10 -11 10 -2 0
-4 -4 -4 -10z"/>
<path d="M5490 6371 c0 -5 5 -13 10 -16 6 -3 10 -2 10 4 0 5 -4 13 -10 16 -5
3 -10 2 -10 -4z"/>
<path d="M4650 6126 c0 -2 8 -10 18 -17 15 -13 16 -12 3 4 -13 16 -21 21 -21
13z"/>
<path d="M4692 6068 c5 -15 28 -23 28 -10 0 5 -7 13 -16 16 -10 4 -14 1 -12
-6z"/>
<path d="M4780 5971 c0 -5 8 -15 17 -22 14 -12 16 -12 8 0 -6 11 -4 13 8 8 10
-3 17 -2 17 2 0 9 -24 21 -41 21 -5 0 -9 -4 -9 -9z"/>
<path d="M4298 5903 c-36 -37 -77 -113 -78 -142 0 -17 45 48 55 78 3 12 10 21
15 21 13 0 60 53 60 67 0 22 -14 15 -52 -24z"/>
<path d="M4850 5920 c19 -13 30 -13 30 0 0 6 -10 10 -22 10 -19 0 -20 -2 -8
-10z"/>
<path d="M4695 5910 c3 -5 8 -10 11 -10 2 0 4 5 4 10 0 6 -5 10 -11 10 -5 0
-7 -4 -4 -10z"/>
<path d="M4805 5900 c3 -5 8 -10 11 -10 2 0 4 5 4 10 0 6 -5 10 -11 10 -5 0
-7 -4 -4 -10z"/>
<path d="M4900 5869 c0 -5 5 -7 10 -4 6 3 10 8 10 11 0 2 -4 4 -10 4 -5 0 -10
-5 -10 -11z"/>
<path d="M4347 5769 c7 -7 0 -20 -23 -45 -19 -19 -34 -39 -34 -45 0 -5 -5 -7
-11 -3 -7 4 -7 9 -2 13 6 3 13 19 17 35 6 25 5 27 -8 13 -9 -8 -29 -21 -46
-29 -18 -8 -28 -18 -25 -26 3 -8 -1 -20 -9 -27 -11 -12 -12 -24 -1 -76 7 -34
11 -68 8 -76 -3 -7 -1 -19 4 -26 6 -6 22 -43 37 -82 15 -38 34 -81 42 -95 16
-27 16 -25 -16 66 -30 86 -34 131 -14 162 24 37 40 52 48 45 3 -4 6 -1 6 5 0
7 9 12 20 12 11 0 20 6 20 14 0 8 11 24 24 37 l23 22 -25 59 c-14 32 -30 58
-36 58 -7 0 -7 -3 1 -11z"/>
<path d="M5640 5720 c-12 -8 -11 -10 7 -10 12 0 25 5 28 10 8 13 -15 13 -35 0z"/>
<path d="M5575 5700 c-3 -5 3 -10 14 -10 12 0 21 5 21 10 0 6 -6 10 -14 10 -8
0 -18 -4 -21 -10z"/>
<path d="M6139 5593 c-13 -16 -12 -17 4 -4 9 7 17 15 17 17 0 8 -8 3 -21 -13z"/>
<path d="M4390 4940 c0 -5 5 -10 10 -10 6 0 10 5 10 10 0 6 -4 10 -10 10 -5 0
-10 -4 -10 -10z"/>
<path d="M4460 4756 c0 -8 81 -68 85 -64 3 2 -15 19 -40 36 -25 17 -45 30 -45
28z"/>
<path d="M1680 2885 c0 -8 2 -15 4 -15 2 0 6 7 10 15 3 8 1 15 -4 15 -6 0 -10
-7 -10 -15z"/>
<path d="M1651 2846 c-13 -15 -21 -86 -10 -86 8 0 32 90 26 96 -2 3 -9 -2 -16
-10z"/>
<path d="M1689 2784 c-1 -32 0 -74 1 -92 2 -36 -16 -59 -82 -102 -26 -17 -38
-34 -43 -58 -6 -35 10 -92 26 -92 21 0 6 -49 -23 -77 -53 -50 -106 -74 -150
-67 -43 7 -47 0 -17 -32 l21 -22 -30 -29 c-16 -15 -39 -48 -51 -71 -22 -43
-169 -205 -203 -223 -14 -8 -25 3 -62 61 -26 39 -46 73 -46 77 0 3 -16 20 -35
39 -19 18 -35 31 -35 29 0 -2 18 -38 41 -79 27 -51 36 -76 27 -76 -7 0 -20 -9
-28 -20 -8 -11 -22 -20 -30 -20 -9 0 -32 -15 -52 -32 -20 -18 -43 -37 -51 -43
-59 -41 -77 -55 -121 -97 -28 -27 -60 -48 -71 -48 -22 0 -65 -38 -65 -56 0
-12 -127 -134 -139 -134 -4 0 -29 -21 -55 -47 -35 -34 -50 -43 -56 -33 -6 9
-10 7 -15 -9 -3 -12 -18 -27 -33 -35 -15 -8 -48 -34 -73 -58 -25 -23 -59 -52
-74 -63 -15 -11 -42 -31 -59 -45 -17 -14 -48 -38 -68 -53 -35 -26 -38 -32 -38
-78 l0 -50 83 58 c177 123 251 183 552 448 151 133 148 131 201 117 70 -19 80
-16 157 48 41 33 83 60 94 60 31 0 57 -61 49 -118 -5 -38 -4 -43 9 -32 21 17
113 159 174 266 81 144 72 148 -58 24 -52 -50 -96 -88 -98 -86 -8 7 9 56 19
56 26 0 218 231 218 261 0 15 64 37 77 27 7 -6 15 -3 21 9 14 23 26 11 17 -17
-4 -13 -12 -19 -21 -16 -9 3 -12 1 -9 -4 6 -10 -38 -75 -65 -97 -8 -6 -12 -15
-8 -19 12 -11 113 32 204 87 75 45 84 54 84 80 0 35 -17 37 -53 9 l-26 -20 10
32 c15 53 31 88 40 88 5 0 9 -4 9 -10 0 -5 4 -10 8 -10 17 0 34 138 28 227 -3
48 -8 140 -12 203 -6 126 -13 157 -15 64z m-179 -543 c0 -12 -20 -25 -27 -18
-7 7 6 27 18 27 5 0 9 -4 9 -9z"/>
<path d="M7936 2225 c5 -54 10 -64 50 -104 52 -52 59 -37 10 20 -18 22 -41 63
-50 92 l-16 52 6 -60z"/>
<path d="M1770 2125 c0 -8 4 -15 10 -15 5 0 7 7 4 15 -4 8 -8 15 -10 15 -2 0
-4 -7 -4 -15z"/>
<path d="M8041 1980 c0 -29 1 -32 10 -17 7 11 7 23 0 35 -9 14 -10 11 -10 -18z"/>
<path d="M1860 1875 c0 -11 5 -27 10 -35 8 -12 10 -12 10 5 0 11 -5 27 -10 35
-8 12 -10 12 -10 -5z"/>
<path d="M1880 1815 c0 -19 145 -346 180 -405 73 -125 134 -235 177 -320 29
-58 59 -109 66 -115 7 -5 22 -26 33 -45 10 -19 25 -39 32 -43 6 -4 12 -14 12
-22 0 -8 6 -18 13 -22 6 -4 25 -26 40 -48 15 -22 52 -74 82 -115 30 -41 62
-88 71 -105 29 -53 74 -93 74 -66 0 5 -19 31 -43 57 -57 64 -148 196 -187 270
-17 32 -42 70 -55 84 -29 31 -195 306 -195 323 0 7 -11 28 -25 47 -14 19 -25
42 -25 51 0 10 -4 21 -10 24 -14 9 -58 103 -75 164 -9 27 -24 56 -35 64 -11 7
-42 61 -71 120 -45 95 -59 119 -59 102z"/>
<path d="M8061 1784 c0 -11 3 -14 6 -6 3 7 2 16 -1 19 -3 4 -6 -2 -5 -13z"/>
<path d="M8061 1683 c-1 -26 -12 -40 -67 -85 -111 -88 -177 -138 -185 -138 -4
0 -10 -7 -13 -15 -7 -20 57 25 144 99 36 31 69 56 74 56 5 0 18 8 29 18 19 17
20 16 15 -30 -4 -36 -2 -45 8 -41 11 4 14 -6 14 -43 0 -27 5 -65 11 -84 13
-43 14 -49 35 -135 9 -38 19 -95 21 -125 4 -52 2 -59 -46 -132 -50 -76 -171
-188 -203 -188 -9 0 -49 -26 -89 -58 -76 -60 -208 -142 -229 -142 -7 0 -33
-15 -59 -34 -25 -18 -100 -61 -166 -94 -205 -104 -385 -224 -550 -366 -89 -76
-96 -84 -63 -63 15 9 33 17 40 17 7 0 39 25 72 55 32 29 73 61 91 69 18 9 38
22 44 30 18 22 191 122 223 130 14 3 40 17 57 31 16 14 76 48 133 75 57 26
119 59 139 73 19 13 48 27 63 31 26 6 28 5 23 -16 -18 -69 -16 -78 6 -28 13
30 29 54 35 52 25 -5 125 59 193 123 9 8 22 15 30 15 8 0 30 14 49 32 50 45
50 41 11 -178 -24 -132 -106 -352 -147 -391 -21 -21 -40 -60 -32 -68 8 -9 54
22 63 43 10 23 25 30 25 12 0 -22 35 9 36 32 0 13 17 88 37 168 20 80 44 192
53 250 15 97 19 108 56 149 21 25 55 71 74 103 20 32 39 58 44 58 5 0 25 -24
46 -52 21 -29 42 -55 47 -56 4 -2 30 -21 57 -43 42 -33 52 -48 66 -97 12 -41
27 -67 54 -92 l37 -35 32 20 c53 34 43 77 -56 236 -23 36 -52 92 -65 124 -16
41 -33 66 -57 82 -18 12 -56 57 -84 100 -63 95 -95 198 -142 448 -21 109 -33
145 -34 98z"/>
<path d="M1697 1520 c-6 -90 -3 -385 5 -442 l3 -26 19 20 c15 16 20 17 26 7 7
-13 24 -221 23 -281 0 -16 3 -28 8 -28 5 0 10 21 10 48 1 26 3 61 4 77 2 17 3
58 4 93 1 74 14 74 31 0 24 -108 31 -128 40 -123 22 13 -2 111 -52 213 -11 24
-23 65 -25 90 -2 26 -8 56 -13 67 -5 11 -11 47 -14 80 -3 33 -10 89 -17 125
-6 36 -11 76 -11 90 0 14 -6 32 -13 40 -7 8 -15 22 -17 30 -3 8 -8 -28 -11
-80z"/>
<path d="M10315 1509 c-119 -8 -305 -48 -430 -91 -110 -37 -195 -71 -191 -75
2 -2 19 2 37 10 19 7 76 24 128 38 71 18 95 21 99 11 6 -20 22 -13 22 10 0 25
15 14 23 -17 5 -19 5 -19 12 2 4 11 15 23 26 26 10 3 17 1 13 -4 -3 -5 4 -9
15 -9 24 0 24 0 11 -35 -7 -18 -15 -25 -25 -21 -8 3 -15 1 -15 -4 0 -16 20
-12 50 10 22 16 29 17 33 6 4 -9 20 -13 51 -11 48 2 53 -3 36 -36 -7 -13 -8
-25 -1 -37 9 -15 10 -14 11 6 0 35 13 27 58 -38 32 -45 46 -58 60 -53 9 4 20
11 23 16 4 5 26 -8 49 -29 l43 -39 -6 55 c-3 30 -9 83 -13 117 -8 74 5 87 58
56 48 -28 81 -81 75 -120 -4 -24 -2 -31 8 -27 7 3 16 12 19 19 7 18 -10 128
-23 153 -6 12 -11 32 -11 46 0 20 -9 30 -42 48 -48 24 -75 27 -203 17z m-25
-243 c0 -5 -7 -3 -15 4 -8 7 -15 20 -15 28 0 13 3 12 15 -4 8 -10 15 -23 15
-28z"/>
<path d="M7505 1225 c-27 -25 -45 -45 -39 -45 6 0 21 9 34 20 13 11 26 20 29
20 3 0 14 12 24 25 27 38 8 29 -48 -20z"/>
<path d="M1688 990 c-4 -14 -7 -50 -7 -80 l1 -55 9 40 c6 22 9 58 7 80 -3 35
-4 37 -10 15z"/>
<path d="M8808 957 c-42 -23 -94 -57 -115 -75 -32 -28 -33 -31 -8 -16 50 30
199 124 204 129 11 11 -8 2 -81 -38z"/>
<path d="M1872 820 c0 -14 2 -19 5 -12 2 6 2 18 0 25 -3 6 -5 1 -5 -13z"/>
<path d="M9185 721 c-11 -5 -26 -6 -32 -4 -7 3 -13 0 -13 -7 0 -6 -4 -9 -9 -5
-5 3 -12 1 -15 -3 -3 -5 -19 -9 -36 -10 -17 0 -38 -6 -46 -13 -8 -6 -14 -8
-14 -4 0 4 -6 2 -14 -4 -8 -7 -21 -11 -28 -9 -7 2 -15 -1 -16 -6 -2 -10 482
-11 498 -1 8 5 7 11 -1 21 -8 10 -23 12 -50 8 -32 -5 -43 -3 -58 14 -14 17
-20 19 -31 9 -9 -9 -14 -9 -17 -1 -2 6 -17 10 -33 8 -16 -2 -32 1 -35 6 -7 12
-22 12 -50 1z"/>
<path d="M10360 716 c0 -9 5 -16 10 -16 6 0 10 4 10 9 0 6 -4 13 -10 16 -5 3
-10 -1 -10 -9z"/>
<path d="M10445 681 c-11 -17 -21 -28 -24 -26 -10 11 -31 -20 -31 -47 0 -24
-3 -29 -16 -24 -14 5 -16 1 -11 -24 6 -25 1 -35 -24 -57 -29 -27 -34 -60 -13
-94 4 -8 3 -10 -4 -5 -7 4 -12 1 -12 -9 0 -9 -5 -13 -11 -9 -8 4 -9 0 -4 -15
4 -12 2 -21 -4 -21 -6 0 -11 -5 -11 -11 0 -6 7 -9 15 -5 11 4 15 -1 15 -19 0
-28 -16 -41 -47 -36 -25 3 -26 -1 -27 -126 -1 -47 2 -59 10 -50 23 23 25 54 7
73 -13 12 -14 19 -5 22 6 2 12 10 12 17 0 8 4 16 8 19 5 3 7 -8 4 -23 -4 -32
15 -52 29 -30 6 10 9 2 9 -23 0 -21 -5 -38 -11 -38 -7 0 -9 -9 -3 -28 4 -15 7
-42 6 -59 -1 -18 2 -33 7 -33 12 0 22 46 21 91 -2 47 75 345 109 429 18 43 42
190 31 190 -3 0 -14 -13 -25 -29z"/>
<path d="M1880 693 c0 -4 5 -15 10 -23 8 -13 10 -13 10 2 0 9 -4 20 -10 23 -5
3 -10 3 -10 -2z"/>
<path d="M1702 650 c0 -14 2 -19 5 -12 2 6 2 18 0 25 -3 6 -5 1 -5 -13z"/>
<path d="M10380 660 c0 -5 5 -10 11 -10 5 0 7 5 4 10 -3 6 -8 10 -11 10 -2 0
-4 -4 -4 -10z"/>
<path d="M8539 638 c0 -13 -2 -40 -5 -61 -3 -27 -1 -36 8 -35 7 2 12 -3 11 -9
-2 -7 1 -13 6 -13 12 0 28 21 33 45 5 23 -27 95 -42 95 -6 0 -10 -10 -11 -22z"/>
<path d="M1892 630 c0 -14 2 -19 5 -12 2 6 2 18 0 25 -3 6 -5 1 -5 -13z"/>
<path d="M1712 540 c-20 -60 -26 -120 -13 -120 7 0 11 -6 9 -12 -1 -7 4 -24
12 -38 12 -20 15 -62 13 -198 l-2 -172 55 0 c56 0 65 5 39 24 -9 6 -17 25 -19
41 -2 17 -9 48 -14 70 -6 22 -16 83 -22 135 -5 52 -15 113 -20 135 -5 22 -10
60 -10 85 -1 25 -5 54 -9 65 -7 17 -9 15 -19 -15z"/>
<path d="M1900 383 c0 -43 5 -41 13 5 4 18 2 32 -3 32 -6 0 -10 -16 -10 -37z"/>
<path d="M2058 354 c-5 -4 -8 -19 -8 -33 1 -23 2 -24 11 -8 11 19 9 53 -3 41z"/>
<path d="M10158 260 c-4 -24 -2 -27 9 -19 15 13 17 35 4 43 -5 3 -11 -8 -13
-24z"/>
<path d="M10130 201 c0 -6 5 -13 10 -16 6 -3 10 1 10 9 0 9 -4 16 -10 16 -5 0
-10 -4 -10 -9z"/>
<path d="M10091 164 c0 -11 3 -14 6 -6 3 7 2 16 -1 19 -3 4 -6 -2 -5 -13z"/>
<path d="M1653 135 c0 -22 2 -30 4 -17 2 12 2 30 0 40 -3 9 -5 -1 -4 -23z"/>
<path d="M10094 98 c1 -29 39 -32 44 -4 2 11 0 16 -6 12 -6 -3 -13 -2 -17 4
-11 18 -22 11 -21 -12z"/>
<path d="M1636 81 c-4 -7 -5 -15 -2 -18 9 -9 19 4 14 18 -4 11 -6 11 -12 0z"/>
</g>
</svg>
